<?xml version="1.0" standalone="no"?><!DOCTYPE svg PUBLIC "-//W3C//DTD SVG 1.1//EN" "http://www.w3.org/Graphics/SVG/1.1/DTD/svg11.dtd"><svg t="1582603823461" class="icon" viewBox="0 0 1024 1024" version="1.1" xmlns="http://www.w3.org/2000/svg" p-id="4108" xmlns:xlink="http://www.w3.org/1999/xlink" width="200" height="200"><defs><style type="text/css"></style></defs><path d="M768 451.2h-64V128H64v768h512v64H64c-35.2 0-64-28.8-64-64V128c0-35.2 28.8-64 64-64h640c35.2 0 64 28.8 64 64v323.2z" p-id="4109" fill="#e6e6e6"></path><path d="M192 0h64v192H192V0z m320 0h64v192h-64V0zM128 320h512v64H128v-64z m0 192h320v64H128v-64z m0 192h256v64H128v-64z m608 256c124.8 0 224-99.2 224-224s-99.2-224-224-224-224 99.2-224 224 99.2 224 224 224z m0 64c-160 0-288-128-288-288s128-288 288-288 288 128 288 288-128 288-288 288z" p-id="4110" fill="#e6e6e6"></path><path d="M704 576h64v192h-64v-192z" p-id="4111" fill="#e6e6e6"></path><path d="M704 704h192v64h-192v-64z" p-id="4112" fill="#e6e6e6"></path></svg>